<mxfile host="app.diagrams.net" modified="2022-07-21T11:24:30.251Z" agent="5.0 (Macintosh; Intel Mac OS X 10_15_7) AppleWebKit/605.1.15 (KHTML, like Gecko) Version/15.5 Safari/605.1.15" etag="InJdQQkmZG2-D_xxdqkv" version="20.0.4" type="github">
  <diagram id="0d7cefc2-ccd6-e077-73ed-a8e48b0cddf6" name="Page-1">
    <mxGraphModel dx="1122" dy="717" grid="1" gridSize="10" guides="1" tooltips="1" connect="1" arrows="1" fold="1" page="1" pageScale="1" pageWidth="1169" pageHeight="827" background="none" math="0" shadow="0">
      <root>
        <mxCell id="0" />
        <mxCell id="1" parent="0" />
        <mxCell id="2" value="" style="swimlane;shadow=0;strokeColor=#4277BB;fillColor=#ffffff;fontColor=#4277BB;align=right;startSize=0;collapsible=0;strokeWidth=3;" parent="1" vertex="1">
          <mxGeometry x="250" y="50" width="813" height="846" as="geometry" />
        </mxCell>
        <mxCell id="103" style="edgeStyle=elbowEdgeStyle;rounded=0;elbow=vertical;html=1;labelBackgroundColor=#ffffff;startArrow=classic;startFill=1;startSize=4;endArrow=classic;endFill=1;endSize=4;jettySize=auto;orthogonalLoop=1;strokeColor=#4277BB;strokeWidth=2;fontSize=14;fontColor=#4277BB;" parent="2" source="76" target="77" edge="1">
          <mxGeometry relative="1" as="geometry" />
        </mxCell>
        <mxCell id="105" style="edgeStyle=elbowEdgeStyle;rounded=0;elbow=vertical;html=1;labelBackgroundColor=#ffffff;startArrow=classic;startFill=1;startSize=4;endArrow=classic;endFill=1;endSize=4;jettySize=auto;orthogonalLoop=1;strokeColor=#4277BB;strokeWidth=2;fontSize=14;fontColor=#4277BB;" parent="2" source="28" target="77" edge="1">
          <mxGeometry relative="1" as="geometry" />
        </mxCell>
        <mxCell id="106" style="edgeStyle=elbowEdgeStyle;rounded=0;elbow=vertical;html=1;entryX=0;entryY=0.522;entryPerimeter=0;labelBackgroundColor=#ffffff;startArrow=classic;startFill=1;startSize=4;endArrow=classic;endFill=1;endSize=4;jettySize=auto;orthogonalLoop=1;strokeColor=#4277BB;strokeWidth=2;fontSize=14;fontColor=#4277BB;" parent="2" source="77" target="79" edge="1">
          <mxGeometry relative="1" as="geometry" />
        </mxCell>
        <mxCell id="104" style="edgeStyle=elbowEdgeStyle;rounded=0;elbow=vertical;html=1;labelBackgroundColor=#ffffff;startArrow=classic;startFill=1;startSize=4;endArrow=classic;endFill=1;endSize=4;jettySize=auto;orthogonalLoop=1;strokeColor=#4277BB;strokeWidth=2;fontSize=14;fontColor=#4277BB;" parent="2" source="76" target="28" edge="1">
          <mxGeometry relative="1" as="geometry">
            <mxPoint x="143" y="200" as="targetPoint" />
          </mxGeometry>
        </mxCell>
        <mxCell id="6" value="Application component" style="rounded=0;html=1;shadow=0;labelBackgroundColor=none;strokeColor=none;strokeWidth=2;fillColor=#EBC01A;gradientColor=none;fontSize=12;fontColor=#4277BB;align=left;labelPosition=right;verticalLabelPosition=middle;verticalAlign=middle;spacingLeft=5;" parent="2" vertex="1">
          <mxGeometry x="12" y="736" width="20" height="10" as="geometry" />
        </mxCell>
        <mxCell id="7" value="Infrastructure services" style="rounded=0;html=1;shadow=0;labelBackgroundColor=none;strokeColor=none;strokeWidth=2;fillColor=#8DC642;gradientColor=none;fontSize=12;fontColor=#4277BB;align=left;labelPosition=right;verticalLabelPosition=middle;verticalAlign=middle;spacingLeft=5;" parent="2" vertex="1">
          <mxGeometry x="12" y="756" width="20" height="10" as="geometry" />
        </mxCell>
        <mxCell id="8" value="Management" style="rounded=0;html=1;shadow=0;labelBackgroundColor=none;strokeColor=none;strokeWidth=2;fillColor=#0DB39D;gradientColor=none;fontSize=12;fontColor=#4277BB;align=left;labelPosition=right;verticalLabelPosition=middle;verticalAlign=middle;spacingLeft=5;" parent="2" vertex="1">
          <mxGeometry x="12" y="776" width="20" height="10" as="geometry" />
        </mxCell>
        <mxCell id="9" value="Data store" style="rounded=0;html=1;shadow=0;labelBackgroundColor=none;strokeColor=none;strokeWidth=2;fillColor=#335D81;gradientColor=none;fontSize=12;fontColor=#4277BB;align=left;labelPosition=right;verticalLabelPosition=middle;verticalAlign=middle;spacingLeft=5;" parent="2" vertex="1">
          <mxGeometry x="12" y="796" width="20" height="10" as="geometry" />
        </mxCell>
        <mxCell id="13" value="LEGEND" style="text;html=1;align=left;verticalAlign=middle;fontColor=#4277BB;shadow=0;dashed=0;strokeColor=none;fillColor=none;labelBackgroundColor=none;fontStyle=1;fontSize=14;spacingLeft=0;" parent="2" vertex="1">
          <mxGeometry x="12" y="706" width="150" height="20" as="geometry" />
        </mxCell>
        <mxCell id="76" value="AUTHORIZATION&lt;br&gt;SERVER" style="aspect=fixed;perimeter=ellipsePerimeter;html=1;align=center;shadow=0;dashed=0;image;image=img/lib/ibm/management/api_management.svg;rounded=1;labelBackgroundColor=#ffffff;strokeColor=#666666;strokeWidth=3;fillColor=#C2952D;gradientColor=none;fontSize=14;fontColor=#4277BB;spacingTop=3;" parent="2" vertex="1">
          <mxGeometry x="130" y="60" width="60" height="60" as="geometry" />
        </mxCell>
        <mxCell id="28" value="" style="swimlane;shadow=0;strokeColor=#4277BB;fillColor=#ffffff;fontColor=#4277BB;align=right;startSize=0;collapsible=0;strokeWidth=3;" parent="2" vertex="1">
          <mxGeometry x="100" y="330" width="120" height="140" as="geometry" />
        </mxCell>
        <mxCell id="84" value="SALESFORCE&lt;br&gt;CLIENT" style="aspect=fixed;perimeter=ellipsePerimeter;html=1;align=center;shadow=0;dashed=0;image;image=img/lib/ibm/applications/microservice.svg;labelBackgroundColor=#ffffff;strokeColor=#666666;strokeWidth=3;fillColor=#C2952D;gradientColor=none;fontSize=12;fontColor=#4277BB;" parent="28" vertex="1">
          <mxGeometry x="19" y="34" width="82" height="60" as="geometry" />
        </mxCell>
        <mxCell id="77" value="" style="swimlane;shadow=0;strokeColor=#4277BB;fillColor=#ffffff;fontColor=#4277BB;align=right;startSize=0;collapsible=0;strokeWidth=3;" parent="2" vertex="1">
          <mxGeometry x="330" y="60" width="215" height="483" as="geometry" />
        </mxCell>
        <mxCell id="85" value="PULL SERVICES&lt;br&gt;CLIENT" style="aspect=fixed;perimeter=ellipsePerimeter;html=1;align=center;shadow=0;dashed=0;image;image=img/lib/ibm/infrastructure/infrastructure_services.svg;rounded=1;labelBackgroundColor=#ffffff;strokeColor=#666666;strokeWidth=3;fillColor=#C2952D;gradientColor=none;fontSize=14;fontColor=#4277BB;" parent="77" vertex="1">
          <mxGeometry x="77.5" y="28" width="60" height="60" as="geometry" />
        </mxCell>
        <mxCell id="86" value="COMPUTE" style="aspect=fixed;perimeter=ellipsePerimeter;html=1;align=center;shadow=0;dashed=0;image;image=img/lib/ibm/infrastructure/dashboard.svg;rounded=1;labelBackgroundColor=#ffffff;strokeColor=#666666;strokeWidth=3;fillColor=#C2952D;gradientColor=none;fontSize=14;fontColor=#4277BB;" parent="77" vertex="1">
          <mxGeometry x="39" y="181" width="60" height="60" as="geometry" />
        </mxCell>
        <mxCell id="87" value="SOFTWARE&lt;div&gt;DEFINED&lt;/div&gt;&lt;div&gt;STORAGE&lt;/div&gt;" style="aspect=fixed;perimeter=ellipsePerimeter;html=1;align=center;shadow=0;dashed=0;image;image=img/lib/ibm/data/data_services.svg;rounded=1;labelBackgroundColor=#ffffff;strokeColor=#666666;strokeWidth=3;fillColor=#C2952D;gradientColor=none;fontSize=14;fontColor=#4277BB;" parent="77" vertex="1">
          <mxGeometry x="39" y="333" width="60" height="60" as="geometry" />
        </mxCell>
        <mxCell id="79" value="" style="swimlane;shadow=0;strokeColor=#4277BB;fillColor=#ffffff;fontColor=#4277BB;align=right;startSize=0;collapsible=0;strokeWidth=3;" parent="2" vertex="1">
          <mxGeometry x="620" y="60" width="137" height="483" as="geometry" />
        </mxCell>
        <mxCell id="92" value="BARE METAL&#xa;SERVERS" style="group;fontSize=14;fontColor=#4277BB;labelPosition=center;verticalLabelPosition=bottom;align=center;verticalAlign=top;labelBackgroundColor=#ffffff;" parent="79" vertex="1" connectable="0">
          <mxGeometry x="40" y="11" width="60" height="60" as="geometry" />
        </mxCell>
        <mxCell id="91" value="" style="aspect=fixed;perimeter=ellipsePerimeter;html=1;align=center;shadow=0;dashed=0;image;image=img/lib/ibm/miscellaneous/scalable.svg;rounded=1;labelBackgroundColor=none;strokeColor=#666666;strokeWidth=3;fillColor=#C2952D;gradientColor=none;fontSize=14;fontColor=#4277BB;" parent="92" vertex="1">
          <mxGeometry width="15" height="15" as="geometry" />
        </mxCell>
        <mxCell id="88" value="" style="aspect=fixed;perimeter=ellipsePerimeter;html=1;align=center;shadow=0;dashed=0;image;image=img/lib/ibm/data/file_repository.svg;rounded=1;labelBackgroundColor=none;strokeColor=#666666;strokeWidth=3;fillColor=#C2952D;gradientColor=none;fontSize=14;fontColor=#4277BB;" parent="92" vertex="1">
          <mxGeometry width="60" height="60" as="geometry" />
        </mxCell>
        <mxCell id="93" value="" style="group;fontSize=14;fontColor=#4277BB;labelBackgroundColor=#ffffff;" parent="79" vertex="1" connectable="0">
          <mxGeometry x="40" y="130" width="60" height="60" as="geometry" />
        </mxCell>
        <mxCell id="94" value="" style="aspect=fixed;perimeter=ellipsePerimeter;html=1;align=center;shadow=0;dashed=0;image;image=img/lib/ibm/miscellaneous/scalable.svg;rounded=1;labelBackgroundColor=none;strokeColor=#666666;strokeWidth=3;fillColor=#C2952D;gradientColor=none;fontSize=14;fontColor=#4277BB;" parent="93" vertex="1">
          <mxGeometry width="15" height="15" as="geometry" />
        </mxCell>
        <mxCell id="95" value="BARE METAL&lt;br&gt;SERVERS" style="aspect=fixed;perimeter=ellipsePerimeter;html=1;align=center;shadow=0;dashed=0;image;image=img/lib/ibm/data/file_repository.svg;rounded=1;labelBackgroundColor=none;strokeColor=#666666;strokeWidth=3;fillColor=#C2952D;gradientColor=none;fontSize=14;fontColor=#4277BB;" parent="93" vertex="1">
          <mxGeometry width="60" height="60" as="geometry" />
        </mxCell>
        <mxCell id="96" value="" style="group;fontSize=14;fontColor=#4277BB;labelBackgroundColor=#ffffff;" parent="79" vertex="1" connectable="0">
          <mxGeometry x="40" y="249" width="60" height="60" as="geometry" />
        </mxCell>
        <mxCell id="97" value="" style="aspect=fixed;perimeter=ellipsePerimeter;html=1;align=center;shadow=0;dashed=0;image;image=img/lib/ibm/miscellaneous/scalable.svg;rounded=1;labelBackgroundColor=none;strokeColor=#666666;strokeWidth=3;fillColor=#C2952D;gradientColor=none;fontSize=14;fontColor=#4277BB;" parent="96" vertex="1">
          <mxGeometry width="15" height="15" as="geometry" />
        </mxCell>
        <mxCell id="98" value="BARE METAL&lt;br&gt;SERVERS" style="aspect=fixed;perimeter=ellipsePerimeter;html=1;align=center;shadow=0;dashed=0;image;image=img/lib/ibm/data/file_repository.svg;rounded=1;labelBackgroundColor=none;strokeColor=#666666;strokeWidth=3;fillColor=#C2952D;gradientColor=none;fontSize=14;fontColor=#4277BB;" parent="96" vertex="1">
          <mxGeometry width="60" height="60" as="geometry" />
        </mxCell>
        <mxCell id="99" value="" style="group;fontSize=14;fontColor=#4277BB;labelBackgroundColor=#ffffff;" parent="79" vertex="1" connectable="0">
          <mxGeometry x="40" y="368" width="60" height="60" as="geometry" />
        </mxCell>
        <mxCell id="100" value="" style="aspect=fixed;perimeter=ellipsePerimeter;html=1;align=center;shadow=0;dashed=0;image;image=img/lib/ibm/miscellaneous/scalable.svg;rounded=1;labelBackgroundColor=none;strokeColor=#666666;strokeWidth=3;fillColor=#C2952D;gradientColor=none;fontSize=14;fontColor=#4277BB;" parent="99" vertex="1">
          <mxGeometry width="15" height="15" as="geometry" />
        </mxCell>
        <mxCell id="101" value="BARE METAL&lt;br&gt;SERVERS" style="aspect=fixed;perimeter=ellipsePerimeter;html=1;align=center;shadow=0;dashed=0;image;image=img/lib/ibm/data/file_repository.svg;rounded=1;labelBackgroundColor=none;strokeColor=#666666;strokeWidth=3;fillColor=#C2952D;gradientColor=none;fontSize=14;fontColor=#4277BB;" parent="99" vertex="1">
          <mxGeometry width="60" height="60" as="geometry" />
        </mxCell>
        <mxCell id="102" value="Scalable" style="aspect=fixed;perimeter=ellipsePerimeter;html=1;align=left;shadow=0;image;image=img/lib/ibm/miscellaneous/scalable.svg;rounded=0;labelBackgroundColor=none;strokeColor=none;strokeWidth=2;fillColor=#335D81;gradientColor=none;fontSize=12;fontColor=#4277BB;verticalAlign=middle;spacingLeft=7;labelPosition=right;verticalLabelPosition=middle;" parent="2" vertex="1">
          <mxGeometry x="15" y="814" width="15" height="15" as="geometry" />
        </mxCell>
        <mxCell id="ZRdF61M9G5Q2cZxPwnLz-107" value="CREATE CONNECTED&lt;br&gt;APP" style="edgeStyle=orthogonalEdgeStyle;rounded=0;orthogonalLoop=1;jettySize=auto;html=1;entryX=0.442;entryY=1.004;entryDx=0;entryDy=0;entryPerimeter=0;strokeColor=#000099;fontColor=#000099;startArrow=classic;startFill=1;" edge="1" parent="2" source="ZRdF61M9G5Q2cZxPwnLz-106" target="28">
          <mxGeometry relative="1" as="geometry" />
        </mxCell>
        <mxCell id="ZRdF61M9G5Q2cZxPwnLz-106" value="" style="sketch=0;aspect=fixed;pointerEvents=1;shadow=0;dashed=0;html=1;strokeColor=none;labelPosition=center;verticalLabelPosition=bottom;verticalAlign=top;align=center;fillColor=#00188D;shape=mxgraph.azure.user" vertex="1" parent="2">
          <mxGeometry x="130" y="570" width="47" height="50" as="geometry" />
        </mxCell>
      </root>
    </mxGraphModel>
  </diagram>
</mxfile>
